<?xml version="1.0" standalone="no"?>
<!DOCTYPE svg PUBLIC "-//W3C//DTD SVG 20010904//EN"
 "http://www.w3.org/TR/2001/REC-SVG-20010904/DTD/svg10.dtd">
<svg version="1.0" xmlns="http://www.w3.org/2000/svg"
 width="1024.000000pt" height="1024.000000pt" viewBox="0 0 1024.000000 1024.000000"
 preserveAspectRatio="xMidYMid meet">

<g transform="translate(0.000000,1024.000000) scale(0.100000,-0.100000)"
fill="#000000" stroke="none">
<path d="M0 5120 l0 -5120 5120 0 5120 0 0 5120 0 5120 -5120 0 -5120 0 0
-5120z m5163 2574 c4 -75 11 -107 32 -150 41 -84 91 -110 232 -121 46 -3 83
-9 83 -13 0 -4 -39 -10 -87 -14 -178 -13 -248 -83 -260 -255 -3 -44 -9 -78
-13 -76 -4 2 -10 35 -13 73 -10 97 -32 155 -77 196 -45 41 -86 54 -192 63 -43
3 -78 9 -78 13 0 4 39 10 86 14 125 9 192 44 230 119 10 18 21 78 28 144 5 61
13 110 17 108 3 -3 9 -48 12 -101z m-576 -531 c23 -50 77 -82 151 -89 34 -4
62 -10 62 -14 0 -4 -26 -10 -58 -13 -111 -10 -153 -53 -177 -179 -12 -67 -13
-69 -14 -28 -3 115 -58 193 -146 205 -28 4 -66 11 -85 15 l-35 8 37 1 c69 2
140 23 170 50 30 27 56 105 59 181 1 21 5 8 10 -34 5 -37 17 -84 26 -103z
m1174 59 c11 -57 44 -104 89 -127 16 -8 61 -18 100 -21 83 -8 74 -18 -24 -28
-81 -8 -97 -15 -131 -61 -19 -23 -30 -56 -38 -107 l-11 -73 -7 63 c-9 72 -39
132 -79 155 -15 9 -63 22 -106 29 -59 10 -70 14 -44 16 77 6 142 25 170 48 32
28 59 101 61 168 1 26 3 32 6 16 2 -14 8 -49 14 -78z m-601 -329 c0 -67 20
-167 45 -220 43 -96 134 -139 315 -151 56 -4 100 -11 100 -17 0 -6 -44 -13
-100 -17 -55 -4 -124 -14 -153 -22 -63 -18 -130 -73 -158 -128 -25 -49 -49
-156 -49 -220 0 -79 -17 -54 -29 45 -6 50 -18 113 -27 139 -19 59 -82 131
-132 151 -46 18 -171 37 -248 37 -39 0 -54 4 -54 13 0 10 26 16 100 21 135 8
191 22 240 57 77 56 106 125 126 292 7 64 24 78 24 20z m-537 -390 c-13 -2
-35 -2 -50 0 -16 2 -5 4 22 4 28 0 40 -2 28 -4z m1110 0 c-13 -2 -33 -2 -45 0
-13 2 -3 4 22 4 25 0 35 -2 23 -4z m-2338 -103 c3 0 3 6 -1 13 -4 6 5 1 19
-12 26 -23 26 -26 11 -49 -15 -23 -15 -25 1 -18 12 4 16 2 12 -7 -4 -10 2 -13
20 -9 17 3 33 -3 53 -23 16 -16 27 -33 23 -38 -3 -6 -1 -7 6 -3 15 9 44 -20
35 -35 -4 -8 -3 -9 5 -5 7 5 45 -24 97 -74 138 -129 324 -276 549 -429 84 -57
119 -87 117 -99 -2 -12 -1 -14 6 -4 7 10 19 7 56 -14 26 -14 44 -29 41 -32 -3
-3 -11 0 -17 6 -14 14 -28 16 -28 3 0 -5 9 -11 20 -14 11 -3 20 -13 20 -24 0
-13 -2 -15 -9 -5 -10 17 -21 17 -31 2 -11 -18 -72 -15 -109 6 -135 76 -411
278 -560 409 -93 81 -321 312 -315 318 4 4 17 7 28 7 18 0 19 -2 6 -11 -13 -9
-13 -10 0 -6 8 2 14 12 12 22 -3 14 1 16 18 12 14 -3 20 -1 17 6 -3 7 -11 10
-18 8 -8 -2 -19 -4 -26 -4 -7 0 -10 -4 -8 -8 3 -3 -6 -9 -20 -11 -33 -7 -50
14 -35 43 8 14 8 19 1 15 -6 -4 -11 -3 -11 2 0 5 9 12 20 15 26 7 26 37 1 37
-11 0 -23 -4 -26 -10 -3 -5 -12 -10 -18 -10 -8 0 -7 3 2 9 7 5 10 14 6 21 -6
9 -9 9 -16 -1 -5 -8 -9 -9 -9 -3 0 18 12 24 31 14 10 -6 20 -10 24 -10z m15
-24 c0 -2 -7 -7 -16 -10 -8 -3 -12 -2 -9 4 6 10 25 14 25 6z m2868 -50 l33
-17 -48 -24 c-111 -54 -223 -105 -232 -105 -5 0 -32 11 -61 24 l-52 24 84 38
c46 22 110 53 143 70 51 27 63 30 80 20 11 -7 35 -21 53 -30z m-2818 19 c0 -8
-2 -15 -4 -15 -2 0 -6 7 -10 15 -3 8 -1 15 4 15 6 0 10 -7 10 -15z m765 -15
l49 -29 -128 -60 c-70 -34 -132 -61 -136 -61 -4 0 -32 11 -61 24 l-52 25 129
64 c71 36 134 65 139 66 6 0 32 -13 60 -29z m2187 -65 c20 -14 42 -25 47 -25
6 0 11 -3 11 -7 -1 -10 -272 -133 -291 -133 -20 1 -127 59 -109 60 9 0 79 29
155 64 77 36 142 65 145 65 3 1 22 -10 42 -24z m-2020 -14 l52 -30 -133 -65
-132 -65 -65 32 c-62 30 -64 32 -37 38 15 4 78 31 138 62 61 31 114 56 118 56
4 1 31 -12 59 -28z m2491 -23 c-4 -7 -8 -17 -8 -22 0 -5 -8 -10 -19 -12 -16
-2 -16 0 5 22 24 26 35 32 22 12z m43 -41 c17 6 17 5 6 -10 -8 -9 -11 -21 -7
-27 9 -14 -44 -72 -58 -63 -6 3 -7 2 -4 -4 10 -16 -86 -98 -252 -216 -91 -66
-102 -71 -130 -68 -7 2 -10 -2 -6 -8 12 -20 -6 -11 -29 14 -13 14 -26 25 -30
25 -4 0 -13 6 -21 13 -11 11 -5 19 36 46 27 18 54 29 59 26 6 -4 9 -2 8 4 -4
13 143 111 156 104 5 -3 6 -1 3 4 -7 11 129 126 149 126 7 0 10 6 7 13 -6 15
13 28 22 14 4 -7 12 -7 24 0 10 5 21 6 25 3 3 -3 6 0 6 8 0 11 2 11 8 1 5 -8
16 -10 28 -5z m-2921 -62 c74 -36 139 -65 145 -65 5 0 10 -16 10 -36 0 -21 -4
-33 -10 -29 -6 4 -8 11 -5 16 4 5 2 9 -3 9 -5 0 -14 -10 -20 -22 -6 -13 -11
-18 -11 -11 -1 6 -10 9 -23 5 -14 -3 -19 -2 -14 6 8 14 -3 15 -22 3 -9 -5 -23
0 -40 16 -17 16 -33 22 -47 19 -12 -3 -30 1 -41 10 -10 8 -13 13 -6 9 17 -9
15 0 -5 16 -11 10 -14 10 -9 2 10 -17 -4 -16 -28 2 -24 18 -33 115 -11 115 3
0 65 -29 140 -65z m2515 31 c0 -35 -26 -58 -41 -35 -4 7 -14 9 -23 6 -11 -5
-16 -20 -17 -54 0 -33 -3 -42 -8 -29 -7 19 -8 19 -22 -2 -14 -19 -17 -20 -37
-7 -14 11 -23 12 -28 4 -3 -6 -19 -9 -35 -5 -16 3 -29 2 -29 -3 0 -4 -10 -13
-22 -20 -23 -11 -23 -11 2 -6 18 4 21 3 10 -4 -8 -5 -24 -11 -35 -13 -11 -1
-23 -10 -27 -18 -4 -8 -7 8 -7 35 l-1 50 53 21 c28 12 97 42 152 68 55 25 103
46 108 46 4 0 7 -15 7 -34z m-3339 -72 c178 -207 549 -486 929 -699 157 -88
485 -253 595 -298 33 -14 115 -50 183 -80 l122 -54 -112 -66 c-62 -36 -140
-84 -172 -105 l-59 -39 -46 20 c-119 51 -458 220 -556 276 -587 337 -874 594
-948 848 -19 65 -32 200 -23 247 4 20 8 36 10 36 1 0 36 -39 77 -86z m3769 76
c0 -5 -2 -10 -4 -10 -3 0 -8 5 -11 10 -3 6 -1 10 4 10 6 0 11 -4 11 -10z m229
-110 c1 -134 -56 -295 -142 -408 -96 -124 -280 -281 -502 -429 -159 -105 -542
-327 -790 -458 -60 -32 -132 -70 -160 -85 -27 -15 -102 -54 -165 -87 -229
-120 -506 -266 -550 -291 -148 -82 -190 -101 -205 -96 -10 4 -21 1 -25 -7 -5
-7 -12 -10 -16 -7 -3 4 1 14 10 24 13 12 20 13 30 5 11 -9 23 -7 52 10 22 12
41 25 44 29 3 4 12 10 20 13 10 4 8 6 -7 6 -13 1 -23 -3 -23 -7 0 -10 -79 -56
-81 -48 -1 3 -2 10 -3 15 -2 15 -26 37 -26 24 0 -6 4 -13 10 -15 5 -1 -2 -8
-15 -15 -25 -11 -25 -11 -26 45 -1 32 -4 45 -6 29 -2 -15 -9 -25 -14 -22 -5 4
-9 -1 -9 -9 0 -9 5 -16 10 -16 6 0 9 -10 9 -22 -1 -17 -2 -19 -6 -5 -5 20 -23
23 -24 5 0 -9 -2 -9 -6 1 -5 11 -7 11 -14 0 -5 -9 -7 2 -5 29 4 39 -5 56 -17
32 -3 -6 -4 -5 -3 2 5 25 31 13 31 -14 0 -14 3 -30 8 -34 4 -4 7 9 7 29 0 20
-5 37 -11 37 -5 0 -7 5 -3 11 3 6 -9 3 -27 -6 -45 -23 -46 -24 -29 -36 11 -8
9 -9 -8 -4 -33 10 -170 -92 -302 -225 -70 -70 -50 -43 68 91 231 265 492 446
1102 764 623 325 1072 597 1385 840 127 98 329 296 383 374 l37 53 7 -38 c4
-22 7 -59 7 -84z m-1426 62 l48 -29 -131 -61 c-73 -34 -138 -62 -146 -62 -19
0 -94 38 -94 48 0 8 238 128 260 130 8 1 37 -11 63 -26z m-1032 -16 l61 -34
-103 -51 c-57 -28 -96 -49 -86 -46 11 3 16 1 11 -6 -3 -6 -15 -9 -25 -6 -10 3
-23 -1 -30 -9 -6 -8 -16 -14 -21 -14 -14 0 -128 53 -128 60 1 3 44 25 97 50
52 24 109 55 127 67 17 12 32 22 33 23 2 0 30 -15 64 -34z m1194 -61 c30 -14
55 -27 55 -29 0 -1 -64 -33 -143 -70 l-142 -67 -55 30 -54 30 84 38 c47 20
108 50 135 64 28 15 53 28 57 28 4 1 32 -10 63 -24z m-1023 -21 l51 -26 -44
-25 c-24 -14 -84 -45 -132 -68 l-89 -43 -60 27 -61 28 133 66 c73 37 137 67
142 67 5 0 32 -12 60 -26z m1478 12 c0 -11 -19 -15 -25 -6 -3 5 1 10 9 10 9 0
16 -2 16 -4z m-64 -35 c-3 -5 -16 -11 -28 -14 -22 -6 -22 -5 -4 8 22 17 40 20
32 6z m-290 -73 c-2 -29 -4 -108 -5 -175 -1 -102 -4 -123 -16 -123 -8 0 -15 6
-15 13 0 8 -4 7 -10 -3 -9 -13 -11 -13 -20 0 -9 13 -10 13 -10 0 0 -13 -1 -13
-10 0 -7 11 -10 11 -10 2 0 -7 -6 -12 -12 -11 -31 4 -50 -2 -45 -14 3 -8 -3
-13 -14 -13 -11 0 -19 6 -19 13 0 14 -77 16 -86 2 -3 -5 -14 -9 -25 -9 -18 0
-19 7 -17 111 1 89 4 113 17 120 33 19 285 139 293 139 4 0 6 -24 4 -52z
m-1594 2 c71 -27 247 -119 228 -120 -9 0 -27 7 -40 16 -22 13 -21 12 3 -8 31
-27 36 -44 7 -26 -15 10 -22 10 -32 0 -14 -14 -32 -16 -24 -3 3 5 -23 12 -58
16 -61 6 -65 8 -71 36 -4 18 -17 35 -36 44 -28 15 -29 15 -30 -7 -1 -16 -4
-13 -10 12 -8 33 -6 60 5 60 3 0 29 -9 58 -20z m828 -37 c27 -16 50 -31 50
-34 0 -4 -48 -28 -107 -54 -60 -26 -121 -57 -137 -68 l-28 -20 -66 32 -67 33
140 68 c77 38 146 69 152 69 7 1 35 -11 63 -26z m185 -87 l50 -23 -147 -73
-146 -72 -67 33 c-62 32 -64 34 -38 40 29 7 186 74 238 102 40 22 51 21 110
-7z m1003 -17 c-20 -13 -28 -11 -22 5 3 8 12 12 21 9 12 -5 12 -7 1 -14z
m-1781 -11 c-3 -8 -6 -5 -6 6 -1 11 2 17 5 13 3 -3 4 -12 1 -19z m-37 2 c0 -5
-4 -10 -9 -10 -6 0 -13 5 -16 10 -3 6 1 10 9 10 9 0 16 -4 16 -10z m926 -82
c-2 -29 -4 -117 -5 -194 l-1 -141 -31 -7 c-19 -3 -41 0 -59 9 -34 18 -40 18
-40 5 0 -5 8 -10 18 -11 11 -1 8 -4 -8 -8 -19 -5 -29 -2 -43 14 -14 16 -16 17
-11 3 7 -21 -6 -24 -24 -6 -9 9 -12 8 -12 -4 0 -9 -7 -19 -16 -22 -12 -5 -15
-2 -11 13 4 18 3 18 -34 2 -22 -9 -40 -24 -42 -36 -3 -11 -4 49 -3 134 l1 153
155 74 c85 41 158 74 163 74 4 0 5 -24 3 -52z m-503 -45 l117 -57 -2 -110 c-1
-61 -3 -93 -6 -71 -3 32 -6 36 -12 20 -7 -17 -9 -17 -9 -2 -1 20 -46 24 -54 5
-3 -8 -6 -6 -6 5 -1 19 -31 24 -31 5 0 -7 -6 -6 -17 4 -10 8 -30 19 -45 26
-26 11 -28 10 -29 -11 0 -18 -3 -16 -12 10 -7 17 -15 35 -19 39 -5 4 -8 35 -8
70 0 54 -3 62 -21 67 -15 4 -22 -1 -29 -19 -15 -39 -20 -28 -20 41 l0 64 43
-15 c23 -8 95 -40 160 -71z m-623 -133 c0 -5 -10 -10 -22 -9 -22 0 -22 1 -3 9
11 5 21 9 23 9 1 1 2 -3 2 -9z m-1265 -121 c219 -222 659 -511 1163 -763 50
-25 92 -50 92 -55 0 -5 -32 -35 -72 -67 -106 -86 -105 -86 -125 -75 -10 5 -42
20 -70 32 -29 12 -53 27 -53 32 0 6 -3 8 -6 4 -6 -6 -72 25 -117 56 -15 10
-34 16 -42 13 -8 -3 -14 -1 -12 5 1 6 -30 27 -70 47 -40 20 -72 42 -73 49 0 6
-14 14 -31 18 -17 4 -33 13 -35 20 -3 8 -19 18 -35 24 -16 5 -29 14 -29 20 0
5 -13 14 -30 20 -16 5 -30 14 -30 20 0 6 -16 13 -35 17 -19 3 -35 10 -35 16 0
5 5 6 10 3 6 -3 10 -1 10 4 0 6 -4 11 -8 11 -5 0 -19 9 -31 19 -16 14 -18 21
-9 25 7 3 2 3 -12 0 -18 -4 -34 2 -55 20 -22 19 -25 26 -14 26 9 0 19 7 23 15
3 8 1 15 -4 15 -6 0 -10 -4 -10 -10 0 -5 -5 -10 -11 -10 -5 0 -9 8 -8 18 3 38
-1 51 -16 46 -21 -8 -16 38 5 48 9 4 3 7 -16 7 -41 1 -54 19 -39 49 12 23 13
23 18 3 3 -12 13 -21 23 -21 16 0 16 1 -2 15 -14 11 -15 14 -3 9 20 -7 33 11
25 33 -6 14 -8 14 -20 -2 -7 -10 -18 -15 -25 -11 -6 4 -14 0 -17 -9 -4 -9 -13
-14 -21 -11 -7 3 -13 0 -12 -7 3 -22 -1 -37 -9 -37 -4 0 -7 14 -7 30 -1 23 4
30 20 31 15 0 11 4 -15 17 -19 9 -38 21 -42 26 -8 12 -40 -13 -32 -25 3 -5 0
-9 -5 -9 -6 0 -12 -8 -12 -17 -1 -16 -2 -17 -6 -1 -2 10 -10 15 -19 11 -7 -3
-11 -10 -7 -16 4 -6 1 -7 -7 -2 -10 6 -9 11 5 21 10 7 22 11 26 8 5 -3 9 0 9
6 0 19 29 42 45 36 8 -3 15 -1 15 4 0 9 -10 12 -30 12 -3 0 -15 -3 -27 -7 -14
-4 -23 -2 -23 4 0 6 11 11 25 11 25 0 33 14 15 25 -5 3 -10 1 -10 -5 0 -6 -8
-4 -17 6 -16 15 -16 17 2 30 21 16 39 19 30 5 -3 -5 -1 -12 4 -15 5 -4 12 -2
16 4 3 6 -7 21 -22 34 -16 14 -47 40 -68 60 -28 24 -42 31 -48 23 -6 -8 -7 -6
-4 5 3 9 -1 24 -8 35 -16 20 -19 43 -7 43 4 0 39 -32 77 -71z m4018 54 c3 -10
4 -34 2 -53 -1 -19 -3 -60 -4 -90 -1 -30 -5 -50 -9 -43 -4 6 -7 -11 -8 -37 -1
-54 -62 -193 -116 -264 -164 -215 -530 -465 -1023 -699 -99 -47 -225 -104
-280 -127 -55 -23 -147 -63 -205 -87 -157 -68 -230 -94 -242 -87 -6 4 -8 2 -5
-3 4 -6 -24 -24 -64 -42 -77 -34 -100 -31 -92 13 3 13 1 26 -4 29 -4 3 -8 -10
-7 -30 2 -35 -21 -58 -35 -34 -4 6 -16 9 -27 5 -11 -3 -14 -3 -8 3 9 6 8 11
-2 21 -12 11 -15 10 -20 -2 -5 -13 -8 -13 -19 -3 -7 8 -15 22 -18 33 -3 13 -5
9 -6 -11 -1 -23 -3 -27 -11 -15 -6 9 -10 11 -10 3 0 -7 -7 -10 -16 -6 -13 5
-13 7 -2 14 10 7 10 9 1 9 -7 0 -13 5 -13 10 0 6 7 10 15 10 8 0 15 -5 15 -12
0 -6 3 -9 6 -5 3 3 2 12 -3 21 -7 13 -22 9 -104 -28 -179 -82 -377 -201 -471
-284 l-53 -47 44 53 c202 245 491 440 1031 696 353 168 624 302 766 382 381
211 748 473 914 652 36 38 68 70 72 71 4 0 9 -7 11 -16z m-4047 -98 c9 -8 11
-15 5 -15 -6 0 -11 -9 -11 -20 0 -14 -6 -20 -22 -19 -16 1 -18 3 -7 6 21 5 30
38 16 52 -6 6 -8 11 -3 11 4 0 14 -7 22 -15z m24 -29 c0 -3 -4 -8 -10 -11 -5
-3 -10 -1 -10 4 0 6 5 11 10 11 6 0 10 -2 10 -4z m34 -14 c-6 -4 -15 -18 -19
-32 -7 -23 -8 -24 -15 -5 -7 20 12 44 35 45 6 0 5 -4 -1 -8z m-49 -70 c-3 -3
-11 0 -18 7 -9 10 -8 11 6 5 10 -3 15 -9 12 -12z m-8 -18 c-3 -3 -12 -4 -19
-1 -8 3 -5 6 6 6 11 1 17 -2 13 -5z m23 -30 c0 -2 -7 -4 -15 -4 -8 0 -15 4
-15 10 0 5 7 7 15 4 8 -4 15 -8 15 -10z m25 -14 c3 -5 -1 -10 -10 -10 -9 0
-13 5 -10 10 3 6 8 10 10 10 2 0 7 -4 10 -10z m80 -37 c-2 -10 -4 -20 -4 -22
-1 -3 -6 0 -12 6 -6 6 -8 16 -5 22 11 17 25 13 21 -6z m125 -3 c0 -5 -5 -10
-11 -10 -5 0 -7 5 -4 10 3 6 8 10 11 10 2 0 4 -4 4 -10z m-150 -21 c0 -5 -4
-9 -10 -9 -5 0 -10 7 -10 16 0 8 5 12 10 9 6 -3 10 -10 10 -16z m30 -24 c0 -8
-2 -15 -4 -15 -2 0 -6 7 -10 15 -3 8 -1 15 4 15 6 0 10 -7 10 -15z m60 -25 c0
-5 -7 -10 -16 -10 -8 0 -12 5 -9 10 3 6 10 10 16 10 5 0 9 -4 9 -10z m30 -19
c0 -21 -13 -41 -26 -41 -8 0 -14 5 -14 10 0 6 7 10 16 10 10 0 14 6 10 15 -3
8 -1 15 4 15 6 0 10 -4 10 -9z m-50 -14 c0 -7 -9 -13 -20 -14 -11 -1 -20 3
-20 8 0 6 5 7 10 4 6 -3 10 -1 10 4 0 6 5 11 10 11 6 0 10 -6 10 -13z m-80
-17 c0 -5 -2 -10 -4 -10 -3 0 -8 5 -11 10 -3 6 -1 10 4 10 6 0 11 -4 11 -10z
m55 -20 c3 -6 -1 -7 -9 -4 -18 7 -21 14 -7 14 6 0 13 -4 16 -10z m94 -16 c-10
-13 -10 -17 1 -24 7 -4 10 -15 7 -24 -9 -23 -26 -20 -20 4 3 12 0 20 -6 20 -7
0 -9 5 -6 10 3 6 -1 10 -9 10 -9 0 -16 -5 -16 -11 0 -5 -5 -7 -12 -3 -16 10
12 29 47 32 24 2 26 0 14 -14z m34 -119 c-3 -9 -8 -14 -10 -11 -3 3 -2 9 2 15
9 16 15 13 8 -4z m48 -12 c-12 -20 -14 -14 -5 12 4 9 9 14 11 11 3 -2 0 -13
-6 -23z m-91 -19 c0 -8 -19 -13 -24 -6 -3 5 1 9 9 9 8 0 15 -2 15 -3z m128
-69 c-3 -3 -9 2 -12 12 -6 14 -5 15 5 6 7 -7 10 -15 7 -18z m392 -175 c0 -5
-2 -10 -4 -10 -3 0 -8 5 -11 10 -3 6 -1 10 4 10 6 0 11 -4 11 -10z m2756 -216
c-4 -9 -9 -14 -13 -11 -3 4 -11 -1 -18 -10 -9 -13 -14 -13 -20 -3 -5 7 -4 11
1 8 5 -3 18 5 29 18 21 25 31 24 21 -2z m-2934 -74 c48 -24 86 -45 84 -47 -4
-5 -186 87 -186 94 0 5 -4 7 102 -47z m2876 32 c2 -7 0 -12 -5 -11 -20 3 -33
-2 -30 -12 1 -6 -3 -13 -10 -16 -8 -3 -11 3 -8 18 7 36 43 50 53 21z m-63 -19
c-2 -10 -4 -21 -4 -25 -1 -5 -8 -8 -17 -8 -9 0 -12 -5 -8 -12 5 -8 2 -9 -9 -5
-10 4 -17 1 -17 -5 0 -6 -3 -8 -6 -5 -11 10 -44 -12 -45 -31 0 -9 -3 -12 -5
-5 -3 7 -12 9 -20 6 -7 -3 -11 -10 -7 -16 3 -6 1 -7 -6 -3 -17 11 -53 -4 -47
-19 3 -9 -2 -11 -16 -7 -16 4 -19 2 -13 -8 5 -8 4 -11 -3 -7 -5 4 -33 -5 -62
-20 -50 -26 -51 -27 -28 -39 13 -8 19 -13 15 -14 -5 0 -17 5 -28 10 -15 9 -37
2 -106 -32 -49 -23 -90 -43 -92 -45 -2 -2 4 -13 15 -25 12 -14 13 -18 3 -10
-9 6 -20 8 -24 4 -5 -4 -5 -1 -1 6 4 7 1 12 -7 12 -18 0 -68 -25 -62 -31 2 -3
-5 -6 -17 -6 -12 -1 -24 -6 -27 -11 -3 -5 -23 -15 -43 -23 -21 -7 -38 -17 -38
-21 0 -4 -6 -8 -13 -8 -32 0 -714 -357 -792 -415 -50 -37 -90 -61 -82 -49 12
21 180 130 302 196 66 36 302 158 525 271 302 153 736 383 787 416 1 1 0 -7
-2 -16z m-2630 -104 c6 -6 -9 -2 -33 9 -55 25 -69 39 -17 18 22 -10 45 -22 50
-27z m631 -41 c4 -7 4 -10 -1 -6 -4 4 -15 2 -24 -5 -14 -11 -14 -10 -2 6 16
20 18 21 27 5z m1664 -88 c0 -5 -2 -10 -4 -10 -3 0 -8 5 -11 10 -3 6 -1 10 4
10 6 0 11 -4 11 -10z m-45 -20 c3 -5 1 -10 -4 -10 -6 0 -11 5 -11 10 0 6 2 10
4 10 3 0 8 -4 11 -10z m-68 -57 c2 -6 -5 -13 -15 -15 -15 -4 -18 -1 -14 14 5
19 23 20 29 1z m-1159 -82 c11 -7 11 -9 -1 -14 -9 -3 -18 1 -21 9 -6 16 2 18
22 5z m53 -44 c-10 -9 -11 -8 -5 6 3 10 9 15 12 12 3 -3 0 -11 -7 -18z m167
12 c-2 -6 -22 -17 -43 -25 -35 -11 -38 -11 -21 2 11 7 28 14 38 14 10 0 18 5
18 10 0 6 3 10 6 10 3 0 4 -5 2 -11z m-61 -5 c-3 -3 -12 -4 -19 -1 -8 3 -5 6
6 6 11 1 17 -2 13 -5z m-304 -31 c-4 -10 -9 -11 -19 -2 -18 15 -18 15 5 15 11
0 17 -5 14 -13z m164 11 c-3 -3 -12 -4 -19 -1 -8 3 -5 6 6 6 11 1 17 -2 13 -5z
m38 -14 c3 -5 1 -10 -4 -10 -6 0 -11 5 -11 10 0 6 2 10 4 10 3 0 8 -4 11 -10z
m1048 -931 c59 -74 119 -145 132 -159 l25 -25 0 143 c0 80 5 152 10 163 13 22
62 26 79 5 8 -9 11 -84 9 -252 l-3 -239 -28 -9 c-19 -7 -34 -7 -45 0 -9 6 -71
78 -137 159 -66 82 -126 150 -132 152 -8 3 -12 -40 -15 -147 -3 -160 -6 -170
-54 -170 -42 0 -45 15 -42 266 l3 238 24 12 c14 7 33 9 45 5 12 -4 70 -68 129
-142z m-2862 -69 c3 -113 7 -206 7 -207 1 -2 48 -3 105 -3 67 0 107 -4 115
-12 15 -15 15 -51 0 -66 -17 -17 -289 -17 -306 0 -17 17 -17 469 0 486 7 7 26
12 43 10 l30 -3 6 -205z m597 198 c5 -7 12 -84 13 -170 4 -176 12 -196 82
-231 45 -22 101 -11 138 29 23 24 25 36 34 202 l10 177 39 0 c51 0 53 -7 51
-201 -1 -141 -3 -155 -26 -200 -79 -154 -333 -151 -402 5 -18 41 -20 64 -18
215 1 93 4 173 7 178 8 13 60 10 72 -4z m824 -5 c8 -10 50 -80 94 -155 71
-125 94 -156 94 -129 0 16 131 255 153 279 24 26 59 29 81 7 17 -17 23 -47 30
-150 2 -38 10 -127 16 -198 14 -142 10 -157 -41 -157 -38 0 -44 18 -54 140 -4
52 -10 113 -14 135 l-6 40 -68 -121 c-37 -67 -74 -127 -82 -134 -34 -28 -56
-8 -128 118 -39 67 -74 122 -78 122 -3 0 -12 -60 -19 -132 -7 -73 -17 -141
-22 -150 -12 -25 -64 -24 -78 2 -8 15 -7 66 4 188 8 92 17 193 19 224 2 31 9
64 16 72 18 21 64 20 83 -1z m887 3 c8 -9 11 -84 9 -252 l-3 -239 -28 -9 c-21
-8 -31 -6 -44 7 -15 15 -16 43 -14 254 1 131 5 241 7 245 8 13 61 9 73 -6z
m1404 -4 c29 -31 218 -458 211 -476 -8 -21 -52 -32 -73 -19 -9 6 -27 31 -40
57 l-24 46 -118 0 -118 0 -28 -52 c-24 -45 -33 -53 -61 -56 -27 -3 -34 1 -42
24 -9 23 -4 41 34 123 25 53 68 148 96 211 28 63 58 125 66 138 18 28 73 30
97 4z"/>
<path d="M3398 6293 c6 -2 18 -2 25 0 6 3 1 5 -13 5 -14 0 -19 -2 -12 -5z"/>
<path d="M3485 6230 c3 -5 8 -10 11 -10 2 0 4 5 4 10 0 6 -5 10 -11 10 -5 0
-7 -4 -4 -10z"/>
<path d="M3605 6110 c3 -5 8 -10 11 -10 2 0 4 5 4 10 0 6 -5 10 -11 10 -5 0
-7 -4 -4 -10z"/>
<path d="M6890 6170 c0 -5 5 -10 11 -10 5 0 7 5 4 10 -3 6 -8 10 -11 10 -2 0
-4 -4 -4 -10z"/>
<path d="M6875 6110 c3 -5 8 -10 11 -10 2 0 4 5 4 10 0 6 -5 10 -11 10 -5 0
-7 -4 -4 -10z"/>
<path d="M6460 5890 c-9 -6 -10 -10 -3 -10 6 0 15 5 18 10 8 12 4 12 -15 0z"/>
<path d="M3945 6050 c-3 -5 -1 -10 4 -10 6 0 11 5 11 10 0 6 -2 10 -4 10 -3 0
-8 -4 -11 -10z"/>
<path d="M4646 4346 c6 -15 4 -17 -6 -11 -9 5 -11 4 -6 -3 4 -7 2 -12 -3 -12
-6 0 -11 -5 -11 -12 0 -7 10 -2 22 10 18 18 20 24 10 34 -11 11 -12 9 -6 -6z"/>
<path d="M4597 4339 c7 -7 15 -10 18 -7 3 3 -2 9 -12 12 -14 6 -15 5 -6 -5z"/>
<path d="M4576 4315 c4 -8 8 -15 10 -15 2 0 4 7 4 15 0 8 -4 15 -10 15 -5 0
-7 -7 -4 -15z"/>
<path d="M4640 4291 c0 -7 -4 -9 -10 -6 -5 3 -10 -2 -10 -12 0 -16 1 -16 17 0
9 9 14 20 10 23 -4 4 -7 2 -7 -5z"/>
<path d="M4716 4281 c-20 -23 -23 -48 -2 -29 8 7 12 16 10 20 -2 3 4 8 13 10
12 2 14 6 7 10 -6 4 -19 -1 -28 -11z"/>
<path d="M4803 4283 c9 -2 23 -2 30 0 6 3 -1 5 -18 5 -16 0 -22 -2 -12 -5z"/>
<path d="M4681 4254 c0 -11 3 -14 6 -6 3 7 2 16 -1 19 -3 4 -6 -2 -5 -13z"/>
<path d="M5927 5873 c-11 -11 -8 -161 4 -168 19 -12 24 5 28 91 2 68 0 84 -11
84 -8 0 -18 -3 -21 -7z"/>
<path d="M5850 5841 c-5 -11 -10 -33 -10 -50 0 -24 4 -31 19 -31 22 0 31 19
31 66 0 38 -22 47 -40 15z"/>
<path d="M4567 5809 c7 -7 15 -10 18 -7 3 3 -2 9 -12 12 -14 6 -15 5 -6 -5z"/>
<path d="M5468 5639 c-15 -8 -18 -25 -18 -94 0 -78 2 -85 20 -85 19 0 20 7 20
95 0 52 -1 95 -2 95 -2 0 -11 -5 -20 -11z"/>
<path d="M5398 5612 c-16 -3 -18 -15 -18 -88 0 -69 3 -84 15 -84 22 0 26 17
23 101 -3 65 -5 74 -20 71z"/>
<path d="M5480 5358 c0 -4 4 -8 9 -8 6 0 12 4 15 8 3 5 -1 9 -9 9 -8 0 -15 -4
-15 -9z"/>
<path d="M3190 5249 c0 -5 5 -7 10 -4 6 3 10 8 10 11 0 2 -4 4 -10 4 -5 0 -10
-5 -10 -11z"/>
<path d="M3233 5249 c-9 -9 -8 -16 3 -27 12 -12 18 -12 27 -2 9 10 9 11 0 6
-6 -3 -14 -2 -18 4 -3 5 1 10 10 10 9 0 13 5 10 10 -8 13 -18 13 -32 -1z"/>
<path d="M3280 5216 c0 -8 -6 -17 -12 -20 -7 -3 -3 -3 10 0 22 5 26 -1 23 -36
-1 -11 1 -11 9 3 13 20 32 23 24 4 -3 -8 2 -14 11 -14 8 0 15 6 15 13 0 15
-28 26 -43 17 -6 -4 -8 0 -5 9 4 8 -2 20 -13 26 -15 10 -19 9 -19 -2z"/>
<path d="M3275 5170 c3 -5 8 -10 11 -10 2 0 4 5 4 10 0 6 -5 10 -11 10 -5 0
-7 -4 -4 -10z"/>
<path d="M3405 5130 c-3 -5 1 -10 10 -10 9 0 13 5 10 10 -3 6 -8 10 -10 10 -2
0 -7 -4 -10 -10z"/>
<path d="M3453 5095 c0 -8 4 -12 8 -10 4 3 16 -7 28 -22 17 -25 19 -25 14 -6
-6 27 -50 59 -50 38z"/>
<path d="M3401 5084 c0 -11 3 -14 6 -6 3 7 2 16 -1 19 -3 4 -6 -2 -5 -13z"/>
<path d="M3443 5053 c17 -10 -6 -23 -31 -17 -26 6 -26 6 -7 -9 16 -13 23 -13
35 -3 8 8 21 11 28 9 6 -3 12 0 12 6 0 6 -4 11 -9 11 -5 0 -15 2 -23 3 -7 2
-10 2 -5 0z"/>
<path d="M3520 5050 c0 -5 5 -10 11 -10 5 0 7 5 4 10 -3 6 -8 10 -11 10 -2 0
-4 -4 -4 -10z"/>
<path d="M3416 4985 c-3 -8 -1 -15 4 -15 6 0 10 7 10 15 0 8 -2 15 -4 15 -2 0
-6 -7 -10 -15z"/>
<path d="M3448 4963 c6 -2 10 -8 7 -13 -3 -4 2 -10 10 -14 8 -3 15 -2 15 2 0
12 -23 32 -34 31 -6 0 -5 -3 2 -6z"/>
<path d="M3561 4944 c0 -11 3 -14 6 -6 3 7 2 16 -1 19 -3 4 -6 -2 -5 -13z"/>
<path d="M3499 4937 c6 -8 7 -18 3 -22 -4 -5 -1 -5 6 -1 10 6 10 11 1 22 -6 8
-14 14 -16 14 -3 0 0 -6 6 -13z"/>
<path d="M3430 4920 c0 -5 5 -10 11 -10 5 0 7 5 4 10 -3 6 -8 10 -11 10 -2 0
-4 -4 -4 -10z"/>
<path d="M3545 4910 c-3 -5 -1 -10 4 -10 6 0 11 5 11 10 0 6 -2 10 -4 10 -3 0
-8 -4 -11 -10z"/>
<path d="M6951 4894 c0 -11 3 -14 6 -6 3 7 2 16 -1 19 -3 4 -6 -2 -5 -13z"/>
<path d="M5000 4000 c-8 -5 -10 -10 -5 -10 6 0 17 5 25 10 8 5 11 10 5 10 -5
0 -17 -5 -25 -10z"/>
<path d="M5030 3979 c0 -5 5 -7 10 -4 6 3 10 8 10 11 0 2 -4 4 -10 4 -5 0 -10
-5 -10 -11z"/>
<path d="M5011 3934 c0 -11 3 -14 6 -6 3 7 2 16 -1 19 -3 4 -6 -2 -5 -13z"/>
<path d="M5140 3935 c0 -8 5 -15 10 -15 6 0 10 7 10 15 0 8 -4 15 -10 15 -5 0
-10 -7 -10 -15z"/>
<path d="M5073 3925 c0 -8 4 -15 9 -15 4 0 8 5 8 11 0 5 5 7 12 3 7 -4 8 -3 4
4 -10 17 -33 15 -33 -3z"/>
<path d="M5148 3903 c6 -2 18 -2 25 0 6 3 1 5 -13 5 -14 0 -19 -2 -12 -5z"/>
<path d="M6778 2821 c-30 -65 -33 -81 -21 -85 17 -7 133 -8 133 -2 0 16 -54
147 -64 155 -10 8 -22 -9 -48 -68z"/>
</g>
</svg>
